<?xml version="1.0" encoding="utf-8"?>
<!-- Generator: Adobe Illustrator 19.2.1, SVG Export Plug-In . SVG Version: 6.00 Build 0)  -->
<svg version="1.1" id="Layer_1" xmlns="http://www.w3.org/2000/svg" xmlns:xlink="http://www.w3.org/1999/xlink" x="0px" y="0px"
	 viewBox="0 0 175.7 88.6" enable-background="new 0 0 175.7 88.6" xml:space="preserve">
<path fill="black" fill-rule="evenodd" clip-rule="evenodd" d="M175.7,38.5c-1.8,4.5-8.6,11.4-12.7,14.2c-2.3,0.6-4.7,4-7.2,4.8
	c-0.6,0.5-0.6,0.5-1.1,0.7c0.2,1.1,13.1,4.3,15.5,8.8c1.5,8.5-16.4,12.8-22.2,14.3c-1.6,0.8-9.3,1.8-11,1.4
	c-1.1,0.7-2.4,0.1-3.4,0.4c-6.5-0.2-14.1,1.3-20.4,0.1c-8,0-15.3,0.5-22.8,3.2c0,1.1,7.8-0.3,8.3,1c-0.4,0.1-14.1,1.4-9.1-2.1
	c12.4-5,27.9-2.9,40.9-3.2c9.3-0.5,33-2.7,38.3-12.4c2.1-6-11.4-8-15.4-10.6c-0.2,0-0.5,0-0.8,0c-2.6,1.4-15.3,7.9-15.6,2.3
	c-2.7,0-5.1,2.5-6.7-1c-2.3,0-3.4,2.6-5.8,1.1c-1.8-0.2-7,4.2-7-0.6c1.1-3.6,5.5-6.6-1.4-2.8c-1.9,1.1-8.1,7.5-8.4,3.8
	c-5.4,0.2-1.6-3-7.4,2c-1.9,0,0.4-1.6-3.5-0.5c-5.8,0,0.1-4.9-6.5-1.1c-1.9,0.8-11,5.1-9.2-1.2c0.2-0.4,0.4-0.8,0.7-1.2
	c-1.7,0-15.6,9-15.6,2.8c0.3-0.6,0.8-1.2,1.3-1.8c0-1.3-7.7,3.8-7.8,4.3c-1.3,0.5-9.1,7.3-9.1,8c-1.6,0.3-6.2,8.4-6.5,9.4
	c-2.4,10.6,20.3-0.2,22.3-1.7c3.1-1.4,8.1-5.2,11.1-5.7c0-0.5,1.9-1.2,2.5-1.2c-2,1.5-37.6,24.5-37.6,9.4
	c2.2-9.9,15.7-18.5,23.7-23.9c0-0.4,0.1-0.3-0.3-0.4c-3.4,1.2-7.7,3.3-10.8,0.9c-0.1,0-0.2,0-0.3,0c-4.2,1.8-15.4,7-14.3-2.1
	c-2.5,0.4-9.5,8.1-11.7,3.5c-0.3-2.6-1.5-1.1-3.4-0.1c-6.5,1.7-12.9,3.6-18.1-2.1c-2.1,0-5.2,8.3-7.1,5.6c0-0.8,4.6-5.2,6.2-7
	c0-0.3,0-0.3-0.6-2.6c-0.6-6.8,3.5-15.7,8.8-20.1c0.7-1.4,7.4-7.2,8.9-7.8c0.1-0.4,6.6-4.1,7.8-4.7c1.4-1.5,7.7-7.3,9.5-7.6
	c2.9-2.6,6.8-3.9,10-6.4c2.7-0.6,4.9-3,8.1-3.4c0.6-0.2,0.6-0.6,1.5-0.6c1-1.2,12.2-3.9,13.4-3.8C76.3-0.9,87.5,0,89.2,2.8
	c0.1,0,0.2,0.1,0.4,0.2c8.6,8.6-9.6,23.5-15.8,28.8c-0.8,1.6-10.9,7.6-10.9,8.3c-0.4,0.1-0.4,0.2-0.6,0.4c-1,0.5-12.2,7.5-12.2,7.7
	c1.1,2.8-1.9,5.7-1.7,3c2.8-4.7-3.6,0.1-4.5,0.7c-4.3,1.7-8.5,4.9-12.7,6.8c-0.9,0-2.6,3-0.1,2.7c4.3-1.6,9-4.5,12-8.2
	c1.6-1.4,2.6-0.6,1,1.3c-4.2,3.7-3.4,8.2,2.6,7.2c1.7-0.5,6.4-1.9,7.4-3.1c-0.4-5.3,9.2-13.2,14.4-11.2c4,2.9-10.9,11-12.2,11.8
	c0,3.1,13.7-3.8,15-3.4c0.1,0.9,2.7,0.3-1-1c-8.8-7.9,25.2-21.7,30.1-23.1c3.4-2.3,17.4-3.3,10.9,3.7c-8,5.8-17.2,10.1-26.4,13.2
	c-1.1,0.2-6.1,0.3-4.3-2.1c0.5,0,1.1,0.1,1.2,0.7c1.5,2.5,32.1-11.7,29.7-15.4c-6.1-2.7-20.4,4.7-25.9,7.5c-3,1-19.2,10.5-14.5,14.4
	c5.9,2.4,11.4-4.9,18.2-3.4c2.7,2-12.1,4.6-14.3,5.5C74.6,56.3,68,59,70,59.1c3.9-2.5,11.5-6.2,16-3c2.6,0.8-5.3,4.4-3.3,7
	c2.7,1.4,11.6-4.4,13.8-6.5c2.3,0,0.4,1.5-0.4,2.3c-4.6,7.3,8.1-0.7,8.9-0.2c1.1,2.6,1.7,2.3,5.1,0.7c4.7-4.3,9.3-8.8,15-12.1
	c0.3-1.1,5.7-3.2,3.3,1.1c-2,2.7-4.3,4.4-6.7,6.2c0.2,3.3-5.7,8-0.3,6.6c3.7-1.5,2.5-3.1,5.5-6.1c7.8-4.8,3.7,2.8,3.1,1.3
	c2.6-4.7-5.4,1.7-4.4,4c3-0.3,5.1-2.1,7.2-4.1c0.9-0.5,2.2-0.3,1.5,0.9c-4.9,4.6-1.1,3.6,3.6,2.1c0.7-0.3,6-4.5,6.3-2.1
	c-0.8,1.7-6.5,2.9-5.6,4.7c1.6,0.7,16.8-3.1,11.5-4.6c-6.6-4.1-8.1-10.2-1.3-15.6C152.8,39,175.3,27.9,175.7,38.5L175.7,38.5
	L175.7,38.5z M174.8,38.5c-1.4,1.8-2.5,4.5-4.3,5.8c-5,5.5-10.8,9.7-17.5,13.2c-1.6,0-4.5-2.5-5.6-3.6c-7.8-9.6,10.9-15.9,17-17.8
	C167.2,35.6,174.5,33.6,174.8,38.5L174.8,38.5L174.8,38.5z M127.7,47.7c-3.4,4.5-8.4,7-13,9.7C113.9,57.4,126.3,46.8,127.7,47.7
	L127.7,47.7L127.7,47.7z M90.6,9.1C89,17,83,20.6,78.8,26.3c-0.5,0.2-6.3,5.5-6.3,5.5c-1.2,1.4-2.7,1.7-3.9,3.2
	c-0.6,0.4-8,4.5-6.9,4.9c-1.3,1.3-5.1,2.3-5.6,3.4c-2.1,0.7-5.2,4.3-7.1,4.3c-6.4-1.9-14.3,5-18.2,9.2C27,61.6,11.6,64.8,8,58
	c0-0.8,10.7-11.4,12.6-12.1c1.2,5.3,5.3,8.3,10.6,8.1c0,0-5.8-2.6-6.7-3.3C23,49,21.6,46.9,22,44.5c4.4-3.7,9.6-9,15.1-11.1
	c-0.4-3.6-15.3,9.9-15.2,9.2c1-0.5,11.1-12.5,11.2-12.5c2.2-3.3,7.3-7.7,0.8-8.5c0-1.7,11.8-9.3,13.3-9.9c0-1.2,16.8-7.9,17.5-8.1
	C71.4,1.8,90.3-3.6,90.6,9.1L90.6,9.1L90.6,9.1z M84.9,56.8c-3.6,2.2-7.9,3.5-11.4,5.6c-1.3,0.5-4.9,2.2-5.8,0.9
	c0.9-3.7,13.2-8.8,17.1-6.8C84.8,56.5,84.8,56.6,84.9,56.8L84.9,56.8L84.9,56.8z M67.9,48.9c-1.9,2.4-10.4,9.3-12.4,9
	C55.4,53.6,66.8,45.7,67.9,48.9L67.9,48.9L67.9,48.9z M47.3,48.5c-0.5,0-3.9,2.6-5.3,3.1c-3.1,1.9-7.2,3.6-9.7,5.5
	c-1.1,0,4.1-4.1,4.9-4.7C40,50.6,47.3,46.7,47.3,48.5L47.3,48.5L47.3,48.5z M36.1,23.6c-1.1,1.7-2.2,4.8-3.8,5.9
	c-2.5,3.8-5.8,7.3-8.8,10.3c-0.4,0.5-1.2,1.2-1.2,1.6c-1.4-0.3,6.6-21.1,13.5-18.4C36.1,23.4,36.1,23.4,36.1,23.6L36.1,23.6
	L36.1,23.6z M28.4,25.4c-4.1,4.9-7.5,11.5-8,17.7c-0.8,0.1-2.4,3.3-3.5,3.6C16.9,47,8,56.4,7.3,56.6C3.9,44.8,18.9,30.8,27.9,25.4
	C28.1,25.4,28.3,25.4,28.4,25.4L28.4,25.4L28.4,25.4z"/>
</svg>
